<svg width="224" height="290" viewBox="0 0 224 290" fill="none" xmlns="http://www.w3.org/2000/svg">
<g clip-path="url(#clip0_101_2)">
<path d="M5.6 260.72H0V288.88H20.76V284.05H5.6V260.72Z" fill="#8C8982"/>
<path d="M37.39 260.72H24.35V288.88H29.95V280.59H37.39C43.07 280.59 47.65 276.73 47.65 270.7C47.65 264.31 43.07 260.73 37.39 260.73V260.72ZM36.75 275.75H29.95V265.57H36.75C39.67 265.57 41.89 267.42 41.89 270.69C41.89 273.7 39.71 275.75 36.75 275.75Z" fill="#8C8982"/>
<path d="M79.15 274.37C81.49 272.9 82.53 270.93 82.53 268.42C82.53 263.86 78.88 260.73 73.82 260.73H60.69V288.89H75.25C80.45 288.89 84 285.68 84 281.07C84 278.11 82.4 275.55 79.15 274.37ZM66.29 265.54H72.86C75.08 265.54 76.74 266.83 76.74 269.04C76.74 271.11 75.37 272.54 73.07 272.54H66.29V265.53V265.54ZM74.34 276.97C76.6 276.97 78.05 278.44 78.05 280.64C78.05 282.67 76.58 284.1 74.34 284.1H66.29V276.97" fill="#8C8982"/>
<path d="M94.16 276.92H107.51V272.07H94.16V265.57H109.42V260.72H88.56V288.88H109.73V284.05H94.16V276.92Z" fill="#8C8982"/>
<path d="M122.9 260.72L111.54 288.88H117.51L119.6 283.36H132.66L134.73 288.88H140.7L129.32 260.72H122.89H122.9ZM121.18 278.9L126.14 266.56L131.05 278.9H121.18Z" fill="#8C8982"/>
<path d="M167.73 278.89V260.73H162.15V278.52C162.15 282.38 159.45 284.28 155.41 284.28C151.62 284.28 148.71 282.54 148.71 278.52V260.73H143.13V278.89C143.13 285.98 148.44 289.3 155.41 289.3C161.86 289.3 167.73 286.23 167.73 278.89Z" fill="#8C8982"/>
<path d="M171.02 265.7H179.84V288.88H185.41V265.7H194.2V260.72H171.02V265.7Z" fill="#8C8982"/>
<path d="M209.36 272.56L201.67 260.72H194.99L206.54 278.24V288.88H212.12V278.24L223.61 260.72H217.14L209.36 272.56Z" fill="#8C8982"/>
<path d="M97.97 0C97.97 0 141.47 3.63 146.09 4.78C150.71 5.93 157.53 15.43 150.78 28.18C144.03 40.93 132.39 54.1 111.28 74.39C90.17 94.68 80.18 105.76 80.18 105.76C80.18 105.76 98.92 103.46 127.9 105.75C156.87 108.04 170.2 106.38 171.24 114.76C172.28 123.13 164.01 126.7 142.82 143.16C121.63 159.62 91.02 191.3 84.33 204.07C77.64 216.84 68.37 239.82 68.37 239.82C68.37 239.82 52.01 216.45 85.56 169.72C119.11 122.98 132.7 126.19 132.7 126.19C132.7 126.19 131.22 120.76 89.4 123.29C47.59 125.82 52.48 114.72 52.48 114.72C52.48 114.72 68.61 55.72 86.78 35.19C104.93 14.64 97.97 0 97.97 0Z" fill="#8C8982"/>
</g>
<defs>
<clipPath id="clip0_101_2">
<rect width="223.61" height="289.3" fill="white"/>
</clipPath>
</defs>
</svg>
